#N canvas 516 296 450 300 12;
#X obj 79 58 osc~ 440;
#X obj 80 100 *~ 0.05;
#X obj 79 139 dac~;
#X msg 82 196 \; pd dsp 1;
#X msg 186 195 \; pd dsp 0;
#X floatatom 79 17 5 0 0 0 - - - 0;
#X connect 0 0 1 0;
#X connect 1 0 2 0;
#X connect 1 0 2 1;
#X connect 5 0 0 0;
